<svg width="375" height="812" viewBox="0 0 375 812" fill="none" xmlns="http://www.w3.org/2000/svg">
<g clip-path="url(#clip0_1_5)">
<rect width="375" height="812" fill="white"/>
<path d="M97.6294 445.582C95.9599 445.582 94.698 445.097 93.8438 444.126C93.0285 443.117 92.6208 441.913 92.6208 440.516C92.6208 439.079 93.0479 437.875 93.9021 436.905C94.7951 435.934 96.0375 435.449 97.6294 435.449C99.2213 435.449 100.483 435.856 101.415 436.672C102.347 437.487 102.813 438.71 102.813 440.341C102.813 441.972 102.366 443.253 101.473 444.185C100.619 445.116 99.3378 445.582 97.6294 445.582ZM127.253 429.333C127.253 425.334 127.059 422.655 126.671 421.296C126.282 419.899 125.525 419.2 124.399 419.2C123.273 419.2 122.264 419.937 121.371 421.413C120.478 422.849 120.031 424.791 120.031 427.237V437.895C120.031 439.564 120.361 440.981 121.021 442.146C121.681 443.311 122.652 443.893 123.933 443.893C125.215 443.893 126.088 443.039 126.554 441.331C127.02 439.623 127.253 436.633 127.253 432.362V429.333ZM119.915 417.278V421.879C121.429 418.423 124.108 416.695 127.952 416.695C131.291 416.695 133.873 417.899 135.698 420.306C137.562 422.713 138.493 426.363 138.493 431.255C138.493 436.148 137.484 439.758 135.465 442.088C133.485 444.418 130.495 445.582 126.496 445.582C124.632 445.582 123.235 445.349 122.303 444.884C121.371 444.418 120.614 443.699 120.031 442.729V457.813H127.544V458.861H105.996V457.813H109.199V418.326H106.112V417.278H119.915ZM152.057 432.944C152.057 437.021 152.271 439.739 152.698 441.098C153.125 442.418 153.901 443.078 155.027 443.078C156.192 443.078 157.182 442.573 157.997 441.564C158.852 440.554 159.279 439.06 159.279 437.079V424.383C159.279 422.713 158.949 421.296 158.289 420.132C157.629 418.967 156.658 418.384 155.377 418.384C154.095 418.384 153.222 419.239 152.756 420.947C152.29 422.655 152.057 425.645 152.057 429.916V432.944ZM160.036 445L159.395 440.923C158.075 444.029 155.396 445.582 151.358 445.582C148.019 445.582 145.418 444.379 143.554 441.972C141.729 439.564 140.817 435.973 140.817 431.197C140.817 421.529 144.661 416.695 152.348 416.695C155.765 416.695 158.017 417.647 159.104 419.549V402.368H155.551V401.32H170.111V443.952H172.965V445H160.036ZM192.12 400.971C190.644 400.971 189.674 401.534 189.208 402.66C188.742 403.747 188.509 405.513 188.509 407.959V417.278H196.197V418.326H188.509V443.952H195.614V445H174.473V443.952H177.676V418.326H174.298V417.278H177.676V417.045C177.676 411.454 178.744 407.222 180.879 404.348C183.015 401.436 186.587 399.98 191.596 399.98C194.896 399.98 197.264 400.641 198.701 401.961C200.137 403.242 200.856 404.737 200.856 406.445C200.856 408.153 200.409 409.435 199.516 410.289C198.623 411.143 197.439 411.57 195.964 411.57C194.488 411.57 193.343 411.201 192.527 410.464C191.751 409.687 191.363 408.814 191.363 407.843C191.363 406.833 191.479 405.863 191.712 404.931H193.925C194.702 402.291 194.1 400.971 192.12 400.971ZM205.447 436.534C204.921 434.986 203.742 433.949 201.583 433.949C199.282 433.949 197.578 435.256 197.578 437.102C197.578 438.608 198.473 439.616 200.475 440.085L202.294 440.511C203.394 440.767 203.913 441.293 203.913 442.045C203.913 442.983 202.919 443.75 201.356 443.75C199.985 443.75 199.126 443.161 198.828 441.989L197.237 442.386C197.627 444.24 199.154 445.227 201.384 445.227C203.92 445.227 205.646 443.842 205.646 441.96C205.646 440.44 204.694 439.482 202.748 439.006L201.129 438.608C199.836 438.288 199.254 437.855 199.254 437.017C199.254 436.08 200.248 435.398 201.583 435.398C203.046 435.398 203.65 436.207 203.941 436.96L205.447 436.534ZM212.601 445.227C215.016 445.227 216.606 443.75 216.891 441.818H215.214C214.902 443.011 213.908 443.722 212.601 443.722C210.612 443.722 209.334 442.074 209.334 439.545C209.334 437.074 210.641 435.455 212.601 435.455C214.078 435.455 214.959 436.364 215.214 437.358H216.891C216.606 435.312 214.873 433.949 212.572 433.949C209.618 433.949 207.658 436.278 207.658 439.602C207.658 442.869 209.533 445.227 212.601 445.227ZM222.551 445.256C224.454 445.256 225.449 444.233 225.79 443.523H225.875V445H227.551V437.812C227.551 434.347 224.909 433.949 223.517 433.949C221.869 433.949 219.994 434.517 219.142 436.506L220.733 437.074C221.102 436.278 221.976 435.426 223.574 435.426C225.115 435.426 225.875 436.243 225.875 437.642V437.699C225.875 438.509 225.051 438.438 223.062 438.693C221.038 438.956 218.829 439.403 218.829 441.903C218.829 444.034 220.477 445.256 222.551 445.256ZM222.807 443.75C221.471 443.75 220.506 443.153 220.506 441.989C220.506 440.71 221.67 440.312 222.977 440.142C223.687 440.057 225.591 439.858 225.875 439.517V441.051C225.875 442.415 224.795 443.75 222.807 443.75ZM232.286 438.438C232.286 436.534 233.465 435.455 235.071 435.455C236.626 435.455 237.571 436.47 237.571 438.182V445H239.247V438.068C239.247 435.284 237.762 433.949 235.554 433.949C233.906 433.949 232.883 434.688 232.372 435.795H232.23V434.091H230.61V445H232.286V438.438ZM243.986 438.438C243.986 436.534 245.165 435.455 246.77 435.455C248.325 435.455 249.27 436.47 249.27 438.182V445H250.946V438.068C250.946 435.284 249.462 433.949 247.253 433.949C245.605 433.949 244.582 434.688 244.071 435.795H243.929V434.091H242.31V445H243.986V438.438ZM258.583 445.227C260.799 445.227 262.418 444.119 262.929 442.472L261.31 442.017C260.884 443.153 259.897 443.722 258.583 443.722C256.615 443.722 255.259 442.45 255.181 440.114H263.1V439.403C263.1 435.341 260.685 433.949 258.412 433.949C255.458 433.949 253.497 436.278 253.497 439.631C253.497 442.983 255.429 445.227 258.583 445.227ZM255.181 438.665C255.294 436.967 256.495 435.455 258.412 435.455C260.23 435.455 261.395 436.818 261.395 438.665H255.181ZM265.649 445H267.326V438.097C267.326 436.619 268.49 435.54 270.081 435.54C270.529 435.54 270.99 435.625 271.104 435.653V433.949C270.912 433.935 270.472 433.92 270.223 433.92C268.916 433.92 267.78 434.659 267.382 435.739H267.269V434.091H265.649V445Z" fill="#9694FF"/>
<rect x="145" y="251" width="84" height="84" rx="20" fill="#9694FF"/>
<path d="M170 282.375V280.25C170 279.123 170.448 278.042 171.245 277.245C172.042 276.448 173.123 276 174.25 276H178.5" stroke="white" stroke-width="4.25" stroke-linecap="round" stroke-linejoin="round"/>
<path d="M170 303.625V305.75C170 306.877 170.448 307.958 171.245 308.755C172.042 309.552 173.123 310 174.25 310H178.5" stroke="white" stroke-width="4.25" stroke-linecap="round" stroke-linejoin="round"/>
<path d="M195.5 276H199.75C200.877 276 201.958 276.448 202.755 277.245C203.552 278.042 204 279.123 204 280.25V282.375" stroke="white" stroke-width="4.25" stroke-linecap="round" stroke-linejoin="round"/>
<path d="M195.5 310H199.75C200.877 310 201.958 309.552 202.755 308.755C203.552 307.958 204 306.877 204 305.75V303.625" stroke="white" stroke-width="4.25" stroke-linecap="round" stroke-linejoin="round"/>
<path d="M172.125 293H201.875" stroke="white" stroke-width="4.25" stroke-linecap="round" stroke-linejoin="round"/>
<circle cx="375.067" cy="0.0666342" r="104" transform="rotate(120 375.067 0.0666342)" fill="url(#paint0_linear_1_5)"/>
<circle cx="314.176" cy="233.176" r="21.3583" transform="rotate(120 314.176 233.176)" fill="url(#paint1_linear_1_5)"/>
<circle cx="67.8383" cy="527.838" r="40.8765" transform="rotate(120 67.8383 527.838)" fill="url(#paint2_linear_1_5)"/>
<circle cx="145" cy="837" r="104" fill="url(#paint3_linear_1_5)"/>
</g>
<defs>
<linearGradient id="paint0_linear_1_5" x1="375.067" y1="-103.933" x2="620.152" y2="84.7178" gradientUnits="userSpaceOnUse">
<stop stop-color="#9694FF" stop-opacity="0.17"/>
<stop offset="1" stop-color="#C4C4C4" stop-opacity="0"/>
</linearGradient>
<linearGradient id="paint1_linear_1_5" x1="314.176" y1="211.818" x2="364.509" y2="250.561" gradientUnits="userSpaceOnUse">
<stop stop-color="#9694FF" stop-opacity="0.35"/>
<stop offset="1" stop-color="#C4C4C4" stop-opacity="0"/>
</linearGradient>
<linearGradient id="paint2_linear_1_5" x1="67.8383" y1="486.962" x2="164.167" y2="561.11" gradientUnits="userSpaceOnUse">
<stop stop-color="#9694FF" stop-opacity="0.35"/>
<stop offset="1" stop-color="#C4C4C4" stop-opacity="0"/>
</linearGradient>
<linearGradient id="paint3_linear_1_5" x1="145" y1="733" x2="390.085" y2="921.651" gradientUnits="userSpaceOnUse">
<stop stop-color="#9694FF" stop-opacity="0.35"/>
<stop offset="1" stop-color="#C4C4C4" stop-opacity="0"/>
</linearGradient>
<clipPath id="clip0_1_5">
<rect width="375" height="812" fill="white"/>
</clipPath>
</defs>
</svg>
